grf
version=1
nRows=9
nColumns=37
inDegrees=no
endheader
time	ground_force_1_vx	ground_force_1_vy	ground_force_1_vz	ground_force_1_px	ground_force_1_py	ground_force_1_pz	ground_moment_1_mx	ground_moment_1_my	ground_moment_1_mz	ground_force_2_vx	ground_force_2_vy	ground_force_2_vz	ground_force_2_px	ground_force_2_py	ground_force_2_pz	ground_moment_2_mx	ground_moment_2_my	ground_moment_2_mz	ground_force_3_vx	ground_force_3_vy	ground_force_3_vz	ground_force_3_px	ground_force_3_py	ground_force_3_pz	ground_moment_3_mx	ground_moment_3_my	ground_moment_3_mz	ground_force_4_vx	ground_force_4_vy	ground_force_4_vz	ground_force_4_px	ground_force_4_py	ground_force_4_pz	ground_moment_4_mx	ground_moment_4_my	ground_moment_4_mz
      3.84000000	      0.00000000	     -0.00000000	      0.00000000	      0.00000000	      0.00000000	      0.00000000	      0.00000000	      0.00000000	      0.00000000	    -11.01157093	     24.97146988	   -708.57281494	   -284.50054676	  -1029.55140704	      0.00000000	      0.00000000	      0.00000000	   1928.14466184	      4.96780186	    -24.01421590	   -331.38156128	   -333.49935241	   -764.46036350	      0.00000000	      0.00000000	      0.00000000	   -750.95484157	      0.00000000	     -0.00000000	      0.00000000	      0.00000000	      0.00000000	      0.00000000	      0.00000000	      0.00000000	      0.00000000
      3.85000000	      0.00000000	     -0.00000000	      0.00000000	      0.00000000	      0.00000000	      0.00000000	      0.00000000	      0.00000000	      0.00000000	    -10.96076965	     24.71551704	   -702.62750244	   -283.91744715	  -1029.32092864	      0.00000000	      0.00000000	      0.00000000	   1776.37114823	      4.32764315	    -24.61310234	   -336.77563477	   -331.83370981	   -763.62499531	      0.00000000	      0.00000000	     -0.00000000	   -749.74740920	      0.00000000	     -0.00000000	      0.00000000	      0.00000000	      0.00000000	      0.00000000	      0.00000000	      0.00000000	      0.00000000
      3.86000000	      0.00000000	     -0.00000000	      0.00000000	      0.00000000	      0.00000000	      0.00000000	      0.00000000	      0.00000000	      0.00000000	    -10.94684696	     25.61750984	   -696.97613525	   -282.84179925	  -1028.95911345	      0.00000000	      0.00000000	      0.00000000	   1631.26527214	      3.87367627	    -24.86745296	   -339.68579102	   -329.86487126	   -764.26873580	      0.00000000	     -0.00000000	     -0.00000000	   -724.29082342	      0.00000000	     -0.00000000	      0.00000000	      0.00000000	      0.00000000	      0.00000000	      0.00000000	      0.00000000	      0.00000000
      3.87000000	      0.00000000	     -0.00000000	      0.00000000	      0.00000000	      0.00000000	      0.00000000	      0.00000000	      0.00000000	      0.00000000	    -10.79447174	     25.79746056	   -691.52636719	   -282.67442379	  -1029.25060900	      0.00000000	      0.00000000	      0.00000000	   1576.10715688	      3.72679109	    -25.19172320	   -346.00927734	   -327.80593657	   -763.33864258	      0.00000000	      0.00000000	     -0.00000000	   -830.36798667	      0.00000000	     -0.00000000	      0.00000000	      0.00000000	      0.00000000	      0.00000000	      0.00000000	      0.00000000	      0.00000000
      3.88000000	      0.00000000	     -0.00000000	      0.00000000	      0.00000000	      0.00000000	      0.00000000	      0.00000000	      0.00000000	      0.00000000	    -10.51399040	     25.88596344	   -683.35375977	   -282.46544126	  -1028.59789955	      0.00000000	      0.00000000	      0.00000000	   1744.39922544	      3.06567657	    -25.85771778	   -350.39395142	   -327.09944683	   -763.42663194	      0.00000000	      0.00000000	     -0.00000000	   -835.38896519	      0.00000000	     -0.00000000	      0.00000000	      0.00000000	      0.00000000	      0.00000000	      0.00000000	      0.00000000	      0.00000000
      3.89000000	      0.00000000	     -0.00000000	      0.00000000	      0.00000000	      0.00000000	      0.00000000	      0.00000000	      0.00000000	      0.00000000	    -10.48879433	     25.99986267	   -678.51574707	   -282.36942171	  -1029.38476713	      0.00000000	      0.00000000	      0.00000000	   1672.69129711	      2.93803509	    -26.34822108	   -356.66635132	   -325.71270160	   -763.00131859	      0.00000000	      0.00000000	     -0.00000000	   -790.15170322	      0.00000000	     -0.00000000	      0.00000000	      0.00000000	      0.00000000	      0.00000000	      0.00000000	      0.00000000	      0.00000000
      3.90000000	      0.00000000	     -0.00000000	      0.00000000	      0.00000000	      0.00000000	      0.00000000	      0.00000000	      0.00000000	      0.00000000	    -10.27039242	     26.79036331	   -673.31970215	   -282.08332338	  -1028.48251788	      0.00000000	     -0.00000000	      0.00000000	   1804.71690606	      3.08321618	    -27.34095219	   -365.25524902	   -325.01021276	   -760.92674097	      0.00000000	     -0.00000000	     -0.00000000	   -783.33074334	      0.00000000	     -0.00000000	      0.00000000	      0.00000000	      0.00000000	      0.00000000	      0.00000000	      0.00000000	      0.00000000
      3.91000000	      0.00000000	     -0.00000000	      0.00000000	      0.00000000	      0.00000000	      0.00000000	      0.00000000	      0.00000000	      0.00000000	    -10.97289276	     26.66357231	   -671.59857178	   -281.71027597	  -1030.43971716	      0.00000000	      0.00000000	      0.00000000	   1788.81648620	      3.86444419	    -27.99797473	   -372.50125122	   -325.47669818	   -761.80184473	      0.00000000	      0.00000000	     -0.00000000	   -862.08785432	      0.00000000	     -0.00000000	      0.00000000	      0.00000000	      0.00000000	      0.00000000	      0.00000000	      0.00000000	      0.00000000
      3.92000000	      0.00000000	     -0.00000000	      0.00000000	      0.00000000	      0.00000000	      0.00000000	      0.00000000	      0.00000000	      0.00000000	    -11.09978580	     26.27963638	   -667.69885254	   -281.83620758	  -1029.40720437	      0.00000000	      0.00000000	      0.00000000	   1691.68722241	      5.28394065	    -28.85868500	   -380.09265137	   -326.39232033	   -763.20397788	      0.00000000	      0.00000000	     -0.00000000	   -894.36280635	      0.00000000	     -0.00000000	      0.00000000	      0.00000000	      0.00000000	      0.00000000	      0.00000000	      0.00000000	      0.00000000
